<?xml version="1.0" standalone="no"?>
<!DOCTYPE svg PUBLIC "-//W3C//DTD SVG 20010904//EN"
 "http://www.w3.org/TR/2001/REC-SVG-20010904/DTD/svg10.dtd">
<svg version="1.0" xmlns="http://www.w3.org/2000/svg"
 width="512.000000pt" height="512.000000pt" viewBox="0 0 512.000000 512.000000"
 preserveAspectRatio="xMidYMid meet">

<g transform="translate(0.000000,512.000000) scale(0.100000,-0.100000)"
fill="#000000" stroke="none">
<path d="M2395 5109 c-339 -23 -650 -107 -960 -259 -517 -254 -911 -648 -1165
-1165 -353 -717 -353 -1533 0 -2250 254 -517 648 -911 1165 -1165 893 -439
1943 -324 2725 300 289 231 521 522 690 865 439 893 324 1943 -300 2725 -385
483 -951 813 -1572 920 -98 16 -403 43 -448 39 -8 -1 -69 -6 -135 -10z m-685
-1349 c203 -41 349 -116 472 -241 118 -121 172 -244 184 -424 22 -316 -163
-642 -446 -785 -116 -58 -191 -74 -355 -74 -215 0 -312 32 -335 112 -8 31 -7
41 8 62 16 21 38 29 151 52 165 34 194 43 254 80 141 89 210 247 210 483 1
134 -16 194 -73 272 -41 56 -137 118 -224 146 -63 19 -92 22 -256 22 -169 -1
-193 -3 -283 -28 -54 -15 -168 -60 -257 -102 -166 -79 -245 -100 -275 -75 -34
28 -9 96 70 193 115 141 397 281 650 322 126 20 367 13 505 -15z m2170 1 c312
-73 533 -238 659 -490 47 -94 65 -148 90 -276 52 -260 31 -564 -58 -827 -147
-436 -509 -738 -961 -804 -149 -21 -349 -15 -469 15 l-84 21 -23 -21 c-33 -31
-91 -40 -179 -29 -135 17 -198 74 -212 189 -3 28 -9 51 -14 51 -20 0 -201 132
-260 190 -70 68 -96 121 -84 167 6 25 8 25 73 21 37 -3 116 -18 175 -33 59
-15 110 -26 112 -24 2 2 13 60 24 129 44 257 129 541 248 830 87 210 126 281
183 334 52 49 117 74 149 57 30 -16 54 -80 59 -156 5 -81 -10 -169 -98 -565
-66 -297 -117 -582 -122 -679 l-3 -65 60 -12 c121 -26 299 -38 372 -27 312 50
561 347 629 753 21 129 16 397 -10 510 -22 94 -82 221 -132 279 -81 94 -213
155 -362 167 -135 11 -340 -33 -682 -146 -142 -47 -204 -63 -266 -67 -80 -6
-82 -5 -99 20 -16 24 -15 28 3 69 26 60 141 165 256 233 162 97 341 165 526
200 108 21 386 13 500 -14z m-2679 -458 c11 -12 14 -51 13 -157 -2 -160 -26
-322 -98 -661 -62 -293 -65 -320 -85 -685 -19 -352 -22 -368 -80 -409 -54 -39
-112 -53 -236 -58 -118 -5 -120 -5 -143 20 -43 46 -55 273 -27 507 51 439 229
1013 392 1268 93 146 219 230 264 175z"/>
</g>
</svg>
